<svg width="36" height="36" viewBox="0 0 36 36" fill="none" xmlns="http://www.w3.org/2000/svg">
<circle cx="17.6785" cy="17.6785" r="16.6785" fill="#CEE7F9" fill-opacity="0.04" stroke="url(#paint0_linear_92_218)" stroke-width="2"/>
<path d="M17.8591 25.1648C22.0933 25.1648 25.5257 21.7323 25.5257 17.4981C25.5257 13.2639 22.0933 9.83142 17.8591 9.83142C13.6249 9.83142 10.1924 13.2639 10.1924 17.4981C10.1924 21.7323 13.6249 25.1648 17.8591 25.1648Z" fill="url(#paint1_linear_92_218)" stroke="white" stroke-linejoin="round"/>
<path d="M10.3457 15.9648C11.0561 19.4642 14.1499 22.0981 17.859 22.0981C21.5681 22.0981 24.662 19.4642 25.3723 15.9648" stroke="white" stroke-linecap="round" stroke-linejoin="round"/>
<path d="M10.8301 14.4315C12.0131 17.1392 14.715 19.0315 17.8588 19.0315C21.0027 19.0315 23.7045 17.1392 24.8876 14.4315" stroke="white" stroke-linecap="round" stroke-linejoin="round"/>
<path d="M11.7256 12.8981C13.1243 14.7603 15.3512 15.9648 17.8595 15.9648C20.3678 15.9648 22.5947 14.7603 23.9986 12.8981" stroke="white" stroke-linecap="round" stroke-linejoin="round"/>
<path d="M13.2588 11.3647C14.5403 12.3275 16.1333 12.8981 17.8596 12.8981C19.5858 12.8981 21.1789 12.3275 22.4603 11.3647" stroke="white" stroke-linecap="round" stroke-linejoin="round"/>
<defs>
<linearGradient id="paint0_linear_92_218" x1="17.6785" y1="0" x2="17.6785" y2="35.3569" gradientUnits="userSpaceOnUse">
<stop stop-color="#3A9FE8"/>
<stop offset="0.335" stop-color="#3AE8B4"/>
<stop offset="0.71" stop-color="#3A9FE8"/>
<stop offset="1" stop-color="#3ADFBB"/>
</linearGradient>
<linearGradient id="paint1_linear_92_218" x1="17.8591" y1="9.83142" x2="17.8591" y2="25.1648" gradientUnits="userSpaceOnUse">
<stop stop-color="#235F8B"/>
<stop offset="0.355" stop-color="#2E7FBA"/>
<stop offset="0.74" stop-color="#61B2ED"/>
<stop offset="1" stop-color="#89C5F1"/>
</linearGradient>
</defs>
</svg>
