<svg xmlns="http://www.w3.org/2000/svg" width="18" height="18" viewBox="0 0 18 18" fill="none" stroke="currentColor" stroke-width="2" stroke-linecap="round" stroke-linejoin="round" class="feather feather-eye-off">
<g id="eyes 1" opacity="0.5">
<path id="Vector" fill-rule="evenodd" clip-rule="evenodd" d="M9 15.375C12.7279 15.375 15.75 12.2542 15.75 10.125C15.75 7.99575 12.7279 4.875 9 4.875C5.27209 4.875 2.25 7.99792 2.25 10.125C2.25 12.2521 5.27209 15.375 9 15.375Z" stroke="black" stroke-width="1.5" stroke-linejoin="round"/>
<path id="Vector_2" d="M9 12.375C10.2426 12.375 11.25 11.3676 11.25 10.125C11.25 8.88236 10.2426 7.875 9 7.875C7.75736 7.875 6.75 8.88236 6.75 10.125C6.75 11.3676 7.75736 12.375 9 12.375Z" stroke="black" stroke-width="1.5" stroke-linejoin="round"/>
<path id="Vector_3" d="M4.97363 4.22473L5.94657 5.58231" stroke="black" stroke-width="1.5" stroke-linecap="round"/>
<path id="Vector_4" d="M13.3597 4.39136L12.3867 5.74897" stroke="black" stroke-width="1.5" stroke-linecap="round"/>
<path id="Vector_5" d="M9.00293 2.625V4.875" stroke="black" stroke-width="1.5" stroke-linecap="round"/>
</g>
<line opacity="0.5" x1="6" y1="6" x2="15" y2="15">
</line>
</svg>