<svg width="98" height="98" viewBox="0 0 98 98" fill="none" xmlns="http://www.w3.org/2000/svg">
<circle cx="49" cy="49" r="48" fill="#CEE7F9" fill-opacity="0.04" stroke="url(#paint0_linear_34_1013)" stroke-width="2"/>
<path d="M49.5 69.75C61.236 69.75 70.75 60.236 70.75 48.5C70.75 36.7639 61.236 27.25 49.5 27.25C37.7639 27.25 28.25 36.7639 28.25 48.5C28.25 60.236 37.7639 69.75 49.5 69.75Z" fill="url(#paint1_linear_34_1013)" stroke="white" stroke-width="2" stroke-linejoin="round"/>
<path d="M28.6749 44.25C30.6438 53.9496 39.2192 61.25 49.4998 61.25C59.7803 61.25 68.3558 53.9496 70.3247 44.25" stroke="white" stroke-width="2" stroke-linecap="round" stroke-linejoin="round"/>
<path d="M30.0181 40C33.2972 47.5051 40.786 52.75 49.4999 52.75C58.2138 52.75 65.7026 47.5051 68.9817 40" stroke="white" stroke-width="2" stroke-linecap="round" stroke-linejoin="round"/>
<path d="M32.4984 35.75C36.3754 40.9114 42.5477 44.25 49.5 44.25C56.4523 44.25 62.6246 40.9114 66.5159 35.75" stroke="white" stroke-width="2" stroke-linecap="round" stroke-linejoin="round"/>
<path d="M36.7479 31.5C40.2998 34.1686 44.7152 35.75 49.5 35.75C54.2848 35.75 58.7002 34.1686 62.252 31.5" stroke="white" stroke-width="2" stroke-linecap="round" stroke-linejoin="round"/>
<defs>
<linearGradient id="paint0_linear_34_1013" x1="49" y1="0" x2="49" y2="98" gradientUnits="userSpaceOnUse">
<stop stop-color="#3A9FE8"/>
<stop offset="0.335" stop-color="#3AE8B4"/>
<stop offset="0.71" stop-color="#3A9FE8"/>
<stop offset="1" stop-color="#3ADFBB"/>
</linearGradient>
<linearGradient id="paint1_linear_34_1013" x1="49.5" y1="27.25" x2="49.5" y2="69.75" gradientUnits="userSpaceOnUse">
<stop stop-color="#235F8B"/>
<stop offset="0.355" stop-color="#2E7FBA"/>
<stop offset="0.74" stop-color="#61B2ED"/>
<stop offset="1" stop-color="#89C5F1"/>
</linearGradient>
</defs>
</svg>
