<svg width="129" height="64" viewBox="0 0 129 64" fill="none" xmlns="http://www.w3.org/2000/svg">
<mask id="path-1-inside-1_183_159" fill="white">
<path fill-rule="evenodd" clip-rule="evenodd" d="M4 7C4 3.13401 7.13401 0 11 0H121C124.866 0 128 3.13401 128 7V9.09751C127.686 8.99 127.35 8.93164 127 8.93164C125.299 8.93164 123.919 10.3109 123.919 12.0124C123.919 13.7138 125.299 15.0931 127 15.0931C127.35 15.0931 127.686 15.0348 128 14.9273V17C128 20.866 124.866 24 121 24H11C7.13401 24 4 20.866 4 17V14.9961C4.24617 15.0595 4.50424 15.0932 4.77019 15.0932C6.47164 15.0932 7.85093 13.7139 7.85093 12.0124C7.85093 10.311 6.47164 8.93168 4.77019 8.93168C4.50424 8.93168 4.24617 8.96537 4 9.02873V7Z"/>
</mask>
<path fill-rule="evenodd" clip-rule="evenodd" d="M4 7C4 3.13401 7.13401 0 11 0H121C124.866 0 128 3.13401 128 7V9.09751C127.686 8.99 127.35 8.93164 127 8.93164C125.299 8.93164 123.919 10.3109 123.919 12.0124C123.919 13.7138 125.299 15.0931 127 15.0931C127.35 15.0931 127.686 15.0348 128 14.9273V17C128 20.866 124.866 24 121 24H11C7.13401 24 4 20.866 4 17V14.9961C4.24617 15.0595 4.50424 15.0932 4.77019 15.0932C6.47164 15.0932 7.85093 13.7139 7.85093 12.0124C7.85093 10.311 6.47164 8.93168 4.77019 8.93168C4.50424 8.93168 4.24617 8.96537 4 9.02873V7Z" fill="#E7E7E7"/>
<path d="M128 9.09751L127.676 10.0434L129 10.4976V9.09751H128ZM128 14.9273H129V13.5272L127.676 13.9813L128 14.9273ZM4 14.9961L4.24926 14.0277L3 13.7061V14.9961H4ZM4 9.02873H3V10.3187L4.24926 9.99717L4 9.02873ZM11 -1C6.58172 -1 3 2.58172 3 7H5C5 3.68629 7.68629 1 11 1V-1ZM121 -1H11V1H121V-1ZM129 7C129 2.58172 125.418 -1 121 -1V1C124.314 1 127 3.68629 127 7H129ZM129 9.09751V7H127V9.09751H129ZM127 9.93164C127.238 9.93164 127.465 9.97125 127.676 10.0434L128.324 8.15158C127.908 8.00874 127.462 7.93164 127 7.93164V9.93164ZM124.919 12.0124C124.919 10.8632 125.851 9.93164 127 9.93164V7.93164C124.746 7.93164 122.919 9.75865 122.919 12.0124H124.919ZM127 14.0931C125.851 14.0931 124.919 13.1616 124.919 12.0124H122.919C122.919 14.2661 124.746 16.0931 127 16.0931V14.0931ZM127.676 13.9813C127.465 14.0535 127.238 14.0931 127 14.0931V16.0931C127.462 16.0931 127.908 16.016 128.324 15.8732L127.676 13.9813ZM129 17V14.9273H127V17H129ZM121 25C125.418 25 129 21.4183 129 17H127C127 20.3137 124.314 23 121 23V25ZM11 25H121V23H11V25ZM3 17C3 21.4183 6.58172 25 11 25V23C7.68629 23 5 20.3137 5 17H3ZM3 14.9961V17H5V14.9961H3ZM4.77019 14.0932C4.58903 14.0932 4.41468 14.0703 4.24926 14.0277L3.75074 15.9645C4.07765 16.0487 4.41945 16.0932 4.77019 16.0932V14.0932ZM6.85093 12.0124C6.85093 13.1616 5.91935 14.0932 4.77019 14.0932V16.0932C7.02392 16.0932 8.85093 14.2662 8.85093 12.0124H6.85093ZM4.77019 9.93168C5.91935 9.93168 6.85093 10.8633 6.85093 12.0124H8.85093C8.85093 9.75869 7.02392 7.93168 4.77019 7.93168V9.93168ZM4.24926 9.99717C4.41468 9.95459 4.58903 9.93168 4.77019 9.93168V7.93168C4.41945 7.93168 4.07765 7.97616 3.75074 8.0603L4.24926 9.99717ZM3 7V9.02873H5V7H3Z" fill="black" fill-opacity="0.21" mask="url(#path-1-inside-1_183_159)"/>
<rect x="10.9316" y="4.31055" width="25.4161" height="15.0186" rx="5" fill="#C2C2C2"/>
<rect x="11.1816" y="4.56055" width="24.9161" height="14.5186" rx="4.75" stroke="black" stroke-opacity="0.17" stroke-width="0.5"/>
<rect x="39.0435" y="12.0122" width="9.24224" height="3.85093" rx="1.92547" fill="#C2C2C2"/>
<rect x="49.4409" y="12.0122" width="9.24224" height="3.85093" rx="1.92547" fill="#C2C2C2"/>
<rect x="39.0435" y="4.31055" width="44.2857" height="6.16149" rx="1" fill="#C2C2C2"/>
<mask id="path-8-inside-2_183_159" fill="white">
<path fill-rule="evenodd" clip-rule="evenodd" d="M4.9215 6.89585C5.5859 3.08738 9.21189 0.538609 13.0204 1.20302L121.384 20.1076C125.192 20.772 127.741 24.3979 127.077 28.2064L126.716 30.2727C126.426 30.1129 126.104 29.9976 125.76 29.9375C124.084 29.6451 122.488 30.7668 122.195 32.4429C121.903 34.1191 123.025 35.7149 124.701 36.0073C125.045 36.0675 125.387 36.0678 125.714 36.0157L125.358 38.0576C124.694 41.8661 121.068 44.4149 117.259 43.7505L8.89574 24.8459C5.08726 24.1815 2.53849 20.5555 3.2029 16.7471L3.54729 14.773C3.7789 14.8777 4.02735 14.9553 4.28934 15.001C5.96547 15.2934 7.56129 14.1716 7.8537 12.4955C8.14611 10.8194 7.02438 9.22356 5.34825 8.93115C5.08626 8.88545 4.82623 8.87429 4.57284 8.8944L4.9215 6.89585Z"/>
</mask>
<path fill-rule="evenodd" clip-rule="evenodd" d="M4.9215 6.89585C5.5859 3.08738 9.21189 0.538609 13.0204 1.20302L121.384 20.1076C125.192 20.772 127.741 24.3979 127.077 28.2064L126.716 30.2727C126.426 30.1129 126.104 29.9976 125.76 29.9375C124.084 29.6451 122.488 30.7668 122.195 32.4429C121.903 34.1191 123.025 35.7149 124.701 36.0073C125.045 36.0675 125.387 36.0678 125.714 36.0157L125.358 38.0576C124.694 41.8661 121.068 44.4149 117.259 43.7505L8.89574 24.8459C5.08726 24.1815 2.53849 20.5555 3.2029 16.7471L3.54729 14.773C3.7789 14.8777 4.02735 14.9553 4.28934 15.001C5.96547 15.2934 7.56129 14.1716 7.8537 12.4955C8.14611 10.8194 7.02438 9.22356 5.34825 8.93115C5.08626 8.88545 4.82623 8.87429 4.57284 8.8944L4.9215 6.89585Z" fill="#E7E7E7"/>
<path d="M126.716 30.2727L126.234 31.1488L127.461 31.8238L127.701 30.4446L126.716 30.2727ZM125.714 36.0157L126.699 36.1876L126.94 34.8083L125.557 35.0281L125.714 36.0157ZM3.54729 14.773L3.95927 13.8618L2.78386 13.3303L2.56217 14.6011L3.54729 14.773ZM4.57284 8.8944L3.58772 8.72254L3.36602 9.99332L4.65195 9.89127L4.57284 8.8944ZM13.1922 0.217895C8.83968 -0.541428 4.6957 2.37145 3.93637 6.72399L5.90662 7.06771C6.47611 3.8033 9.5841 1.61865 12.8485 2.18814L13.1922 0.217895ZM121.556 19.1224L13.1922 0.217895L12.8485 2.18814L121.212 21.0927L121.556 19.1224ZM128.062 28.3783C128.821 24.0257 125.908 19.8818 121.556 19.1224L121.212 21.0927C124.476 21.6622 126.661 24.7702 126.091 28.0346L128.062 28.3783ZM127.701 30.4446L128.062 28.3783L126.091 28.0346L125.731 30.1009L127.701 30.4446ZM125.588 30.9226C125.822 30.9635 126.039 31.0415 126.234 31.1488L127.198 29.3966C126.812 29.1843 126.386 29.0317 125.932 28.9524L125.588 30.9226ZM123.18 32.6148C123.378 31.4827 124.456 30.7251 125.588 30.9226L125.932 28.9524C123.711 28.565 121.597 30.0509 121.21 32.2711L123.18 32.6148ZM124.873 35.0222C123.741 34.8247 122.983 33.7469 123.18 32.6148L121.21 32.2711C120.823 34.4913 122.309 36.6051 124.529 36.9924L124.873 35.0222ZM125.557 35.0281C125.337 35.0631 125.107 35.0631 124.873 35.0222L124.529 36.9924C124.984 37.0718 125.436 37.0725 125.871 37.0033L125.557 35.0281ZM126.343 38.2295L126.699 36.1876L124.729 35.8439L124.373 37.8858L126.343 38.2295ZM117.087 44.7356C121.44 45.4949 125.584 42.582 126.343 38.2295L124.373 37.8858C123.803 41.1502 120.695 43.3348 117.431 42.7653L117.087 44.7356ZM8.72388 25.8311L117.087 44.7356L117.431 42.7653L9.0676 23.8608L8.72388 25.8311ZM2.21778 16.5752C1.45846 20.9277 4.37134 25.0717 8.72388 25.8311L9.0676 23.8608C5.80319 23.2913 3.61853 20.1833 4.18802 16.9189L2.21778 16.5752ZM2.56217 14.6011L2.21778 16.5752L4.18802 16.9189L4.53241 14.9449L2.56217 14.6011ZM4.4612 14.0158C4.28273 13.9847 4.11492 13.9322 3.95927 13.8618L3.1353 15.6842C3.44289 15.8233 3.77196 15.9258 4.11748 15.9861L4.4612 14.0158ZM6.86858 12.3237C6.67108 13.4557 5.59326 14.2133 4.4612 14.0158L4.11748 15.9861C6.33768 16.3734 8.4515 14.8876 8.83882 12.6674L6.86858 12.3237ZM5.17639 9.91627C6.30845 10.1138 7.06607 11.1916 6.86858 12.3237L8.83882 12.6674C9.22615 10.4472 7.74031 8.33335 5.52011 7.94603L5.17639 9.91627ZM4.65195 9.89127C4.82223 9.87775 4.99792 9.88514 5.17639 9.91627L5.52011 7.94603C5.17459 7.88575 4.83023 7.87083 4.49372 7.89753L4.65195 9.89127ZM3.93637 6.72399L3.58772 8.72254L5.55796 9.06626L5.90662 7.06771L3.93637 6.72399Z" fill="black" fill-opacity="0.21" mask="url(#path-8-inside-2_183_159)"/>
<rect x="12.2124" y="5.4375" width="25.4161" height="15.0186" rx="5" transform="rotate(9.89595 12.2124 5.4375)" fill="#C2C2C2"/>
<rect x="12.4157" y="5.72675" width="24.9161" height="14.5186" rx="4.75" transform="rotate(9.89595 12.4157 5.72675)" stroke="black" stroke-opacity="0.17" stroke-width="0.5"/>
<rect x="38.582" y="17.8564" width="9.24224" height="3.85093" rx="1.92547" transform="rotate(9.89595 38.582 17.8564)" fill="#C2C2C2"/>
<rect x="48.8252" y="19.6431" width="9.24224" height="3.85093" rx="1.92547" transform="rotate(9.89595 48.8252 19.6431)" fill="#C2C2C2"/>
<rect x="39.9058" y="10.269" width="44.2857" height="6.16149" rx="1" transform="rotate(9.89595 39.9058 10.269)" fill="#C2C2C2"/>
<mask id="path-15-inside-3_183_159" fill="white">
<path fill-rule="evenodd" clip-rule="evenodd" d="M4.94897 10.6968C6.07444 6.99826 9.98508 4.91237 13.6836 6.03784L118.919 38.0611C122.618 39.1866 124.704 43.0972 123.578 46.7958L122.967 48.8024C122.699 48.6083 122.394 48.4546 122.059 48.3527C120.431 47.8573 118.71 48.7754 118.215 50.4031C117.72 52.0309 118.638 53.752 120.265 54.2473C120.6 54.3492 120.939 54.3913 121.27 54.3797L120.667 56.3626C119.541 60.0612 115.631 62.1471 111.932 61.0216L6.69673 28.9983C2.99818 27.8728 0.912295 23.9622 2.03777 20.2637L2.62114 18.3466C2.8382 18.4789 3.07528 18.5862 3.32971 18.6636C4.95746 19.159 6.67856 18.241 7.17389 16.6132C7.66921 14.9855 6.7512 13.2644 5.12345 12.769C4.86902 12.6916 4.61232 12.6487 4.35837 12.6377L4.94897 10.6968Z"/>
</mask>
<path fill-rule="evenodd" clip-rule="evenodd" d="M4.94897 10.6968C6.07444 6.99826 9.98508 4.91237 13.6836 6.03784L118.919 38.0611C122.618 39.1866 124.704 43.0972 123.578 46.7958L122.967 48.8024C122.699 48.6083 122.394 48.4546 122.059 48.3527C120.431 47.8573 118.71 48.7754 118.215 50.4031C117.72 52.0309 118.638 53.752 120.265 54.2473C120.6 54.3492 120.939 54.3913 121.27 54.3797L120.667 56.3626C119.541 60.0612 115.631 62.1471 111.932 61.0216L6.69673 28.9983C2.99818 27.8728 0.912295 23.9622 2.03777 20.2637L2.62114 18.3466C2.8382 18.4789 3.07528 18.5862 3.32971 18.6636C4.95746 19.159 6.67856 18.241 7.17389 16.6132C7.66921 14.9855 6.7512 13.2644 5.12345 12.769C4.86902 12.6916 4.61232 12.6487 4.35837 12.6377L4.94897 10.6968Z" fill="#E7E7E7"/>
<path d="M122.967 48.8024L122.382 49.6129L123.517 50.433L123.924 49.0935L122.967 48.8024ZM121.27 54.3797L122.227 54.6708L122.635 53.3313L121.235 53.3803L121.27 54.3797ZM2.62114 18.3466L3.14153 17.4926L2.03999 16.8214L1.66445 18.0555L2.62114 18.3466ZM4.35837 12.6377L3.40168 12.3465L3.02614 13.5806L4.3149 13.6367L4.35837 12.6377ZM13.9747 5.08116C9.74784 3.79491 5.27854 6.17878 3.99229 10.4057L5.90566 10.9879C6.87035 7.81775 10.2223 6.02984 13.3925 6.99453L13.9747 5.08116ZM119.21 37.1044L13.9747 5.08116L13.3925 6.99453L118.628 39.0178L119.21 37.1044ZM124.535 47.0869C125.821 42.86 123.437 38.3907 119.21 37.1044L118.628 39.0178C121.798 39.9825 123.586 43.3345 122.621 46.5046L124.535 47.0869ZM123.924 49.0935L124.535 47.0869L122.621 46.5046L122.011 48.5113L123.924 49.0935ZM121.768 49.3094C121.996 49.3787 122.201 49.4826 122.382 49.6129L123.553 47.9919C123.196 47.734 122.792 47.5304 122.35 47.396L121.768 49.3094ZM119.172 50.6942C119.506 49.5948 120.669 48.9748 121.768 49.3094L122.35 47.396C120.194 46.7399 117.914 47.9559 117.258 50.112L119.172 50.6942ZM120.557 53.2906C119.457 52.9561 118.837 51.7936 119.172 50.6942L117.258 50.112C116.602 52.2681 117.818 54.5479 119.974 55.204L120.557 53.2906ZM121.235 53.3803C121.013 53.3881 120.784 53.3599 120.557 53.2906L119.974 55.204C120.416 55.3384 120.865 55.3945 121.305 55.3791L121.235 53.3803ZM121.624 56.6537L122.227 54.6708L120.314 54.0886L119.71 56.0715L121.624 56.6537ZM111.641 61.9783C115.868 63.2645 120.337 60.8807 121.624 56.6537L119.71 56.0715C118.746 59.2417 115.394 61.0296 112.223 60.0649L111.641 61.9783ZM6.40561 29.955L111.641 61.9783L112.223 60.0649L6.98785 28.0416L6.40561 29.955ZM1.08108 19.9725C-0.205173 24.1995 2.1787 28.6688 6.40561 29.955L6.98785 28.0416C3.81767 27.0769 2.02976 23.725 2.99445 20.5548L1.08108 19.9725ZM1.66445 18.0555L1.08108 19.9725L2.99445 20.5548L3.57783 18.6377L1.66445 18.0555ZM3.62083 17.707C3.44752 17.6542 3.2874 17.5815 3.14153 17.4926L2.10074 19.2005C2.389 19.3762 2.70305 19.5182 3.03859 19.6203L3.62083 17.707ZM6.2172 16.3221C5.88265 17.4215 4.72022 18.0415 3.62083 17.707L3.03859 19.6203C5.19471 20.2764 7.47446 19.0604 8.13057 16.9043L6.2172 16.3221ZM4.83233 13.7257C5.93172 14.0603 6.55175 15.2227 6.2172 16.3221L8.13057 16.9043C8.78668 14.7482 7.57068 12.4685 5.41457 11.8123L4.83233 13.7257ZM4.3149 13.6367C4.48555 13.6441 4.65902 13.673 4.83233 13.7257L5.41457 11.8123C5.07903 11.7102 4.73908 11.6533 4.40183 11.6386L4.3149 13.6367ZM3.99229 10.4057L3.40168 12.3465L5.31505 12.9288L5.90566 10.9879L3.99229 10.4057Z" fill="black" fill-opacity="0.21" mask="url(#path-15-inside-3_183_159)"/>
<rect x="12.3633" y="10.1416" width="25.4161" height="15.0186" rx="5" transform="rotate(16.9251 12.3633 10.1416)" fill="#C2C2C2"/>
<rect x="12.5297" y="10.4536" width="24.9161" height="14.5186" rx="4.75" transform="rotate(16.9251 12.5297 10.4536)" stroke="black" stroke-opacity="0.17" stroke-width="0.5"/>
<rect x="37.0151" y="25.6938" width="9.24224" height="3.85093" rx="1.92547" transform="rotate(16.9251 37.0151 25.6938)" fill="#C2C2C2"/>
<rect x="46.9624" y="28.7207" width="9.24224" height="3.85093" rx="1.92547" transform="rotate(16.9251 46.9624 28.7207)" fill="#C2C2C2"/>
<rect x="39.2573" y="18.3257" width="44.2857" height="6.16149" rx="1" transform="rotate(16.9251 39.2573 18.3257)" fill="#C2C2C2"/>
</svg>
