<svg width="12" height="12" viewBox="0 0 12 12" fill="none" xmlns="http://www.w3.org/2000/svg">
<g id="tv" clip-path="url(#clip0_9_240)">
<path id="Vector" d="M10.25 3.5H1.75C1.47386 3.5 1.25 3.72386 1.25 4V10C1.25 10.2761 1.47386 10.5 1.75 10.5H10.25C10.5261 10.5 10.75 10.2761 10.75 10V4C10.75 3.72386 10.5261 3.5 10.25 3.5Z" stroke="black" stroke-width="1.5"/>
<path id="Vector_2" d="M6 3.5L9.5 1.5" stroke="black" stroke-width="1.5" stroke-linecap="round" stroke-linejoin="round"/>
<path id="Vector_3" d="M5.75 3.5L2.5 1.5" stroke="black" stroke-width="1.5" stroke-linecap="round" stroke-linejoin="round"/>
<path id="Vector_4" d="M8.75 5V6.5" stroke="black" stroke-width="1.5" stroke-linecap="round" stroke-linejoin="round"/>
<path id="Vector_5" d="M9.25 8.5C9.25 8.22386 9.02614 8 8.75 8C8.47386 8 8.25 8.22386 8.25 8.5C8.25 8.77614 8.47386 9 8.75 9C9.02614 9 9.25 8.77614 9.25 8.5Z" fill="black"/>
</g>
<defs>
<clipPath id="clip0_9_240">
<rect width="12" height="12" fill="white"/>
</clipPath>
</defs>
</svg>
