<svg width="36" height="33" viewBox="0 0 36 33" fill="none" xmlns="http://www.w3.org/2000/svg">
<rect width="35.8696" height="33" rx="8" fill="#B0D9F6"/>
<path d="M24.521 12.9585H12.4793C12.0881 12.9585 11.771 13.2756 11.771 13.6668V22.1668C11.771 22.558 12.0881 22.8752 12.4793 22.8752H24.521C24.9122 22.8752 25.2293 22.558 25.2293 22.1668V13.6668C25.2293 13.2756 24.9122 12.9585 24.521 12.9585Z" stroke="black" stroke-width="2"/>
<path d="M18.5 12.9583L23.4583 10.125" stroke="black" stroke-width="2" stroke-linecap="round" stroke-linejoin="round"/>
<path d="M18.1457 12.9583L13.5415 10.125" stroke="black" stroke-width="2" stroke-linecap="round" stroke-linejoin="round"/>
<path d="M22.396 15.0835V17.2085" stroke="black" stroke-width="2" stroke-linecap="round" stroke-linejoin="round"/>
<path d="M23.1042 20.0418C23.1042 19.6506 22.787 19.3335 22.3958 19.3335C22.0046 19.3335 21.6875 19.6506 21.6875 20.0418C21.6875 20.433 22.0046 20.7502 22.3958 20.7502C22.787 20.7502 23.1042 20.433 23.1042 20.0418Z" fill="black"/>
</svg>
